<?xml version="1.0" encoding="utf-8"?>
<!-- Generator: Adobe Illustrator 18.1.0, SVG Export Plug-In . SVG Version: 6.00 Build 0)  -->
<svg version="1.1" id="Layer_1" xmlns="http://www.w3.org/2000/svg" xmlns:xlink="http://www.w3.org/1999/xlink" x="0px" y="0px"
	 viewBox="0 0 1000 1000" enable-background="new 0 0 1000 1000" xml:space="preserve">
<g>
	<g>
		<path fill="#F69320" d="M742,168C624,49.3,452,18,302.7,70v120c118-58,263.3-40.7,360,56.7c122,122,120.7,322-2.7,445.3
			c-97.3,97.3-240.7,117.3-357.3,62.7V874C450,922,619.3,888.7,738,770C905.3,603.3,907.3,333.3,742,168z"/>
	</g>
	<g>
		<path fill="none" d="M432.7,317.3C338,317.3,282,385.3,282,468s61.3,150.7,150.7,150.7s150.7-68,150.7-150.7
			S527.3,317.3,432.7,317.3z"/>
		<path d="M442.7,190.7c-60,0-130,25.3-170.7,84v-72h-9.3H140v162v588.7h131.3V670c37.3,58,120,75.3,176,75.3
			c170,0,267.3-122.7,267.3-277.3C714.7,312,606,190.7,442.7,190.7z M432.7,618C343.3,618,282,550,282,467.3s56-150.7,150.7-150.7
			s150.7,68,150.7,150.7S522,618,432.7,618z"/>
	</g>
</g>
</svg>
