<?xml version="1.0" standalone="no"?>
<!DOCTYPE svg PUBLIC "-//W3C//DTD SVG 20010904//EN"
 "http://www.w3.org/TR/2001/REC-SVG-20010904/DTD/svg10.dtd">
<svg version="1.0" xmlns="http://www.w3.org/2000/svg"
 width="700.000000pt" height="700.000000pt" viewBox="0 0 700.000000 700.000000"
 preserveAspectRatio="xMidYMid meet">
<metadata>
Created by potrace 1.11, written by Peter Selinger 2001-2013
</metadata>
<g transform="translate(0.000000,700.000000) scale(0.100000,-0.100000)"
fill="#000000" stroke="none">
<path d="M2938 6675 c-2 -2 -42 -6 -90 -10 -49 -3 -96 -8 -105 -9 -10 -2 -40
-7 -68 -10 -51 -7 -143 -25 -259 -50 -82 -18 -278 -76 -289 -86 -8 -7 -13
-827 -6 -835 2 -2 22 6 44 16 138 68 454 164 603 183 23 3 60 8 82 11 103 15
355 20 440 10 19 -2 60 -6 91 -10 31 -3 67 -8 80 -10 13 -3 51 -10 84 -16 293
-52 636 -210 895 -411 80 -62 237 -210 305 -288 153 -175 302 -426 390 -659
37 -97 99 -332 109 -408 9 -63 15 -112 21 -168 7 -58 8 -333 1 -385 -3 -19 -8
-60 -11 -90 -47 -391 -215 -786 -476 -1115 -68 -87 -225 -247 -304 -310 -28
-22 -52 -42 -55 -45 -32 -32 -167 -122 -282 -188 -166 -95 -441 -201 -590
-227 -18 -3 -52 -10 -75 -15 -22 -5 -65 -13 -95 -16 -29 -3 -75 -10 -103 -14
-52 -9 -424 -5 -485 4 -145 23 -324 60 -365 77 -11 4 -56 20 -100 35 -44 15
-108 39 -142 55 l-63 28 -1 -77 c-2 -250 1 -755 4 -758 4 -5 171 -54 200 -60
10 -2 26 -5 35 -8 9 -3 28 -7 42 -10 14 -2 45 -9 70 -14 25 -6 68 -13 95 -16
28 -4 61 -8 75 -11 171 -32 595 -38 750 -11 14 2 50 7 80 10 30 4 87 13 127
21 39 8 89 18 110 21 21 3 41 8 45 10 4 3 49 16 100 29 168 44 356 116 536
205 82 40 332 186 342 200 3 3 33 25 66 48 34 23 68 47 75 54 8 7 48 40 89 73
107 85 332 312 428 433 259 324 440 677 552 1072 16 58 31 116 34 130 3 14 8
36 11 50 11 50 24 120 31 167 3 26 8 56 9 65 2 9 6 45 10 80 3 35 8 81 10 103
5 47 6 361 1 420 -28 346 -91 615 -218 930 -75 185 -253 501 -353 624 -8 9
-44 54 -81 101 -61 78 -297 320 -369 380 -321 266 -629 438 -995 556 -109 35
-318 86 -405 100 -27 4 -52 8 -55 9 -3 0 -34 4 -70 9 -36 4 -78 9 -95 12 -33
5 -463 13 -467 9z"/>
<path d="M3068 5665 c-2 -1 -43 -5 -93 -9 -49 -3 -101 -8 -115 -11 -14 -3 -38
-7 -55 -10 -16 -2 -66 -13 -110 -25 -294 -77 -560 -244 -738 -462 -25 -32 -48
-54 -50 -50 -2 4 -3 114 -3 245 l1 237 -55 0 c-120 1 -632 1 -747 0 l-123 0 0
-2624 c0 -2090 3 -2625 13 -2628 10 -3 808 -2 885 1 l22 1 1 988 0 987 22 -30
c171 -231 484 -399 862 -461 17 -3 41 -7 55 -10 106 -18 356 -24 495 -11 710
64 1247 452 1507 1087 49 117 89 247 103 329 3 19 7 37 9 40 4 6 10 42 21 126
4 28 9 61 12 75 9 46 11 424 3 495 -10 84 -21 164 -25 185 -40 196 -90 349
-165 504 -47 97 -89 175 -100 186 -3 3 -23 32 -45 65 -121 180 -311 363 -510
490 -198 126 -477 229 -699 259 -27 4 -52 9 -56 11 -10 6 -315 26 -322 20z
m97 -890 c39 -3 88 -11 110 -17 22 -5 51 -12 65 -14 62 -11 215 -80 296 -133
146 -97 251 -215 330 -373 45 -89 88 -220 99 -299 3 -24 8 -62 12 -84 7 -49 7
-224 -1 -262 -3 -15 -8 -44 -11 -63 -54 -340 -305 -653 -625 -778 -255 -99
-529 -103 -795 -10 -110 38 -255 126 -340 205 -48 45 -135 149 -135 160 0 6
-4 13 -9 15 -27 10 -109 185 -144 308 -31 107 -41 186 -40 325 1 111 33 306
55 332 6 7 8 13 5 13 -4 0 9 36 27 80 39 90 124 223 188 290 171 181 410 289
672 307 50 3 92 7 93 8 3 2 47 -1 148 -10z"/>
</g>
</svg>
